<svg xmlns="http://www.w3.org/2000/svg" direction="ltr" width="1024" height="1024" viewBox="-656.2825330512492 8879.358897801903 1024 1024" stroke-linecap="round" stroke-linejoin="round" data-color-mode="light" class="tl-container tl-theme__force-sRGB tl-theme__light" style="background-color: transparent;"><defs/><g transform="matrix(1, 0, 0, 1, -656.2825, 8879.3589)" opacity="1"><g transform="scale(1, 1)"><g>
<g xmlns="http://www.w3.org/2000/svg" stroke-width="2.00" fill="none" stroke-linecap="butt">
<path stroke="#515a69" vector-effect="non-scaling-stroke" d="   M 185.55 256.34   L 426.24 428.15   A 0.96 0.95 26.8 0 0 427.71 427.67   L 455.86 339.62   A 0.76 0.75 9.0 0 1 456.58 339.10   L 603.68 339.10   A 0.29 0.29 0.0 0 1 603.95 339.49   Q 596.75 359.47 592.50 370.27   Q 589.09 378.96 588.36 381.19   C 585.06 391.39 580.33 402.30 577.21 411.58   C 576.54 413.56 575.36 415.91 574.71 417.72   Q 567.61 437.34 562.96 448.26   Q 562.35 449.67 561.59 453.41   A 0.35 0.34 -11.9 0 0 562.13 453.76   L 838.95 256.14   A 0.19 0.19 0.0 0 0 838.84 255.79   L 185.72 255.79   A 0.30 0.30 0.0 0 0 185.55 256.34"/>
<path stroke="#515a69" vector-effect="non-scaling-stroke" d="   M 852.61 291.51   L 606.06 467.52   A 0.46 0.45 -62.6 0 0 606.32 468.35   L 663.36 468.35   A 0.51 0.51 0.0 0 1 663.76 469.17   Q 655.07 480.17 644.96 493.44   Q 626.06 518.27 607.25 542.78   Q 575.04 584.78 547.22 621.54   Q 547.19 621.59 539.39 631.59   C 532.05 640.99 526.03 649.49 517.39 660.54   C 503.01 678.95 490.06 696.20 473.54 717.79   C 471.99 719.82 470.31 723.32 467.73 725.00   A 0.28 0.26 25.4 0 1 467.57 725.05   L 426.77 725.20   A 0.73 0.73 0.0 0 1 426.07 724.25   L 467.59 589.43   A 0.77 0.77 0.0 0 0 466.85 588.43   L 377.33 588.43   A 0.53 0.52 9.2 0 1 376.83 587.74   L 415.48 466.88   A 0.83 0.82 30.4 0 0 415.25 466.02   Q 412.41 463.45 411.89 463.10   Q 399.52 454.82 388.98 446.83   C 383.98 443.03 378.27 439.43 373.14 435.60   Q 366.25 430.46 346.24 416.24   Q 306.13 387.71 279.98 368.86   C 273.14 363.93 266.23 359.45 259.46 354.26   C 251.86 348.44 246.61 345.23 238.63 339.54   Q 211.51 320.20 171.55 291.35   A 0.38 0.37 -72.2 0 0 170.96 291.66   L 170.96 767.47   A 0.67 0.67 0.0 0 0 171.63 768.14   L 852.38 768.14   A 0.72 0.71 0.0 0 0 853.10 767.43   L 853.10 291.76   A 0.31 0.31 0.0 0 0 852.61 291.51"/>
<path stroke="#0e7996" vector-effect="non-scaling-stroke" d="   M 617.81 490.56   L 524.61 490.56   A 0.51 0.50 -79.8 0 1 524.14 489.88   L 571.68 362.15   A 0.58 0.58 0.0 0 0 571.14 361.37   L 472.65 361.37   A 0.83 0.82 -81.4 0 0 471.86 361.96   L 407.74 565.25   A 0.65 0.65 0.0 0 0 408.36 566.10   L 497.02 566.10   A 0.72 0.72 0.0 0 1 497.71 567.04   Q 490.32 589.89 483.31 614.57   C 481.72 620.17 479.25 626.35 477.81 631.32   C 473.05 647.71 468.14 664.69 462.82 681.33   Q 460.11 689.82 457.18 701.61   A 0.26 0.26 0.0 0 0 457.64 701.83   L 618.27 491.49   A 0.58 0.58 0.0 0 0 617.81 490.56"/>
</g>
<path xmlns="http://www.w3.org/2000/svg" fill="#1c2230" d="   M 1024.00 0.00   L 1024.00 1024.00   L 0.00 1024.00   L 0.00 0.00   L 1024.00 0.00   Z   M 185.55 256.34   L 426.24 428.15   A 0.96 0.95 26.8 0 0 427.71 427.67   L 455.86 339.62   A 0.76 0.75 9.0 0 1 456.58 339.10   L 603.68 339.10   A 0.29 0.29 0.0 0 1 603.95 339.49   Q 596.75 359.47 592.50 370.27   Q 589.09 378.96 588.36 381.19   C 585.06 391.39 580.33 402.30 577.21 411.58   C 576.54 413.56 575.36 415.91 574.71 417.72   Q 567.61 437.34 562.96 448.26   Q 562.35 449.67 561.59 453.41   A 0.35 0.34 -11.9 0 0 562.13 453.76   L 838.95 256.14   A 0.19 0.19 0.0 0 0 838.84 255.79   L 185.72 255.79   A 0.30 0.30 0.0 0 0 185.55 256.34   Z   M 852.61 291.51   L 606.06 467.52   A 0.46 0.45 -62.6 0 0 606.32 468.35   L 663.36 468.35   A 0.51 0.51 0.0 0 1 663.76 469.17   Q 655.07 480.17 644.96 493.44   Q 626.06 518.27 607.25 542.78   Q 575.04 584.78 547.22 621.54   Q 547.19 621.59 539.39 631.59   C 532.05 640.99 526.03 649.49 517.39 660.54   C 503.01 678.95 490.06 696.20 473.54 717.79   C 471.99 719.82 470.31 723.32 467.73 725.00   A 0.28 0.26 25.4 0 1 467.57 725.05   L 426.77 725.20   A 0.73 0.73 0.0 0 1 426.07 724.25   L 467.59 589.43   A 0.77 0.77 0.0 0 0 466.85 588.43   L 377.33 588.43   A 0.53 0.52 9.2 0 1 376.83 587.74   L 415.48 466.88   A 0.83 0.82 30.4 0 0 415.25 466.02   Q 412.41 463.45 411.89 463.10   Q 399.52 454.82 388.98 446.83   C 383.98 443.03 378.27 439.43 373.14 435.60   Q 366.25 430.46 346.24 416.24   Q 306.13 387.71 279.98 368.86   C 273.14 363.93 266.23 359.45 259.46 354.26   C 251.86 348.44 246.61 345.23 238.63 339.54   Q 211.51 320.20 171.55 291.35   A 0.38 0.37 -72.2 0 0 170.96 291.66   L 170.96 767.47   A 0.67 0.67 0.0 0 0 171.63 768.14   L 852.38 768.14   A 0.72 0.71 0.0 0 0 853.10 767.43   L 853.10 291.76   A 0.31 0.31 0.0 0 0 852.61 291.51   Z   M 617.81 490.56   L 524.61 490.56   A 0.51 0.50 -79.8 0 1 524.14 489.88   L 571.68 362.15   A 0.58 0.58 0.0 0 0 571.14 361.37   L 472.65 361.37   A 0.83 0.82 -81.4 0 0 471.86 361.96   L 407.74 565.25   A 0.65 0.65 0.0 0 0 408.36 566.10   L 497.02 566.10   A 0.72 0.72 0.0 0 1 497.71 567.04   Q 490.32 589.89 483.31 614.57   C 481.72 620.17 479.25 626.35 477.81 631.32   C 473.05 647.71 468.14 664.69 462.82 681.33   Q 460.11 689.82 457.18 701.61   A 0.26 0.26 0.0 0 0 457.64 701.83   L 618.27 491.49   A 0.58 0.58 0.0 0 0 617.81 490.56   Z"/>
<path xmlns="http://www.w3.org/2000/svg" fill="#8692a2" d="   M 185.55 256.34   A 0.30 0.30 0.0 0 1 185.72 255.79   L 838.84 255.79   A 0.19 0.19 0.0 0 1 838.95 256.14   L 562.13 453.76   A 0.35 0.34 -11.9 0 1 561.59 453.41   Q 562.35 449.67 562.96 448.26   Q 567.61 437.34 574.71 417.72   C 575.36 415.91 576.54 413.56 577.21 411.58   C 580.33 402.30 585.06 391.39 588.36 381.19   Q 589.09 378.96 592.50 370.27   Q 596.75 359.47 603.95 339.49   A 0.29 0.29 0.0 0 0 603.68 339.10   L 456.58 339.10   A 0.76 0.75 9.0 0 0 455.86 339.62   L 427.71 427.67   A 0.96 0.95 26.8 0 1 426.24 428.15   L 185.55 256.34   Z"/>
<path xmlns="http://www.w3.org/2000/svg" fill="#8692a2" d="   M 852.61 291.51   A 0.31 0.31 0.0 0 1 853.10 291.76   L 853.10 767.43   A 0.72 0.71 0.0 0 1 852.38 768.14   L 171.63 768.14   A 0.67 0.67 0.0 0 1 170.96 767.47   L 170.96 291.66   A 0.38 0.37 -72.2 0 1 171.55 291.35   Q 211.51 320.20 238.63 339.54   C 246.61 345.23 251.86 348.44 259.46 354.26   C 266.23 359.45 273.14 363.93 279.98 368.86   Q 306.13 387.71 346.24 416.24   Q 366.25 430.46 373.14 435.60   C 378.27 439.43 383.98 443.03 388.98 446.83   Q 399.52 454.82 411.89 463.10   Q 412.41 463.45 415.25 466.02   A 0.83 0.82 30.4 0 1 415.48 466.88   L 376.83 587.74   A 0.53 0.52 9.2 0 0 377.33 588.43   L 466.85 588.43   A 0.77 0.77 0.0 0 1 467.59 589.43   L 426.07 724.25   A 0.73 0.73 0.0 0 0 426.77 725.20   L 467.57 725.05   A 0.28 0.26 25.4 0 0 467.73 725.00   C 470.31 723.32 471.99 719.82 473.54 717.79   C 490.06 696.20 503.01 678.95 517.39 660.54   C 526.03 649.49 532.05 640.99 539.39 631.59   Q 547.19 621.59 547.22 621.54   Q 575.04 584.78 607.25 542.78   Q 626.06 518.27 644.96 493.44   Q 655.07 480.17 663.76 469.17   A 0.51 0.51 0.0 0 0 663.36 468.35   L 606.32 468.35   A 0.46 0.45 -62.6 0 1 606.06 467.52   L 852.61 291.51   Z"/>
<path xmlns="http://www.w3.org/2000/svg" fill="#00d0fc" d="   M 617.81 490.56   A 0.58 0.58 0.0 0 1 618.27 491.49   L 457.64 701.83   A 0.26 0.26 0.0 0 1 457.18 701.61   Q 460.11 689.82 462.82 681.33   C 468.14 664.69 473.05 647.71 477.81 631.32   C 479.25 626.35 481.72 620.17 483.31 614.57   Q 490.32 589.89 497.71 567.04   A 0.72 0.72 0.0 0 0 497.02 566.10   L 408.36 566.10   A 0.65 0.65 0.0 0 1 407.74 565.25   L 471.86 361.96   A 0.83 0.82 -81.4 0 1 472.65 361.37   L 571.14 361.37   A 0.58 0.58 0.0 0 1 571.68 362.15   L 524.14 489.88   A 0.51 0.50 -79.8 0 0 524.61 490.56   L 617.81 490.56   Z"/>
</g></g></g></svg>